<svg viewBox="0 0 363 54" fill="none" xmlns="http://www.w3.org/2000/svg">
<path d="M84.2027 13.9144C78.9487 13.9144 74.5087 15.7644 70.8827 19.5384C67.3307 23.2384 65.5547 27.8264 65.5547 33.3764C65.5547 38.9264 67.3307 43.5144 70.8827 47.2884C74.5087 50.9884 78.9487 52.8384 84.2027 52.8384C90.3447 52.8384 94.8587 50.2484 96.1167 46.6224V52.0244H104.997V0.446411H96.1167V20.1304C94.8587 16.5044 90.3447 13.9144 84.2027 13.9144ZM85.3867 44.7724C82.2047 44.7724 79.6147 43.6624 77.4687 41.5164C75.3967 39.3704 74.3607 36.6324 74.3607 33.3764C74.3607 30.1204 75.3967 27.3824 77.4687 25.2364C79.6147 23.0904 82.2047 21.9804 85.3867 21.9804C88.5687 21.9804 91.3067 23.0904 93.4527 25.2364C95.6727 27.3824 96.7827 30.1204 96.7827 33.3764C96.7827 36.6324 95.6727 39.3704 93.4527 41.5164C91.3067 43.6624 88.5687 44.7724 85.3867 44.7724Z" fill="#013765"/>
<path d="M129.802 13.9144C124.548 13.9144 120.108 15.7644 116.482 19.5384C112.93 23.2384 111.154 27.8264 111.154 33.3764C111.154 38.9264 112.93 43.5144 116.482 47.2884C120.108 50.9884 124.548 52.8384 129.802 52.8384C135.944 52.8384 140.458 50.2484 141.716 46.6224V52.0244H150.596V14.7284H141.716V20.1304C140.458 16.5044 135.944 13.9144 129.802 13.9144ZM130.986 44.7724C127.804 44.7724 125.214 43.6624 123.068 41.5164C120.996 39.3704 119.96 36.6324 119.96 33.3764C119.96 30.1204 120.996 27.3824 123.068 25.2364C125.214 23.0904 127.804 21.9804 130.986 21.9804C134.168 21.9804 136.906 23.0904 139.052 25.2364C141.272 27.3824 142.382 30.1204 142.382 33.3764C142.382 36.6324 141.272 39.3704 139.052 41.5164C136.906 43.6624 134.168 44.7724 130.986 44.7724Z" fill="#013765"/>
<path d="M169.706 52.0244V22.7944H177.772V14.7284H169.706V0.446411H160.826V14.7284H156.016V22.7944H160.826V52.0244H169.706Z" fill="#013765"/>
<path d="M198.527 13.9144C193.273 13.9144 188.833 15.7644 185.207 19.5384C181.655 23.2384 179.879 27.8264 179.879 33.3764C179.879 38.9264 181.655 43.5144 185.207 47.2884C188.833 50.9884 193.273 52.8384 198.527 52.8384C204.669 52.8384 209.183 50.2484 210.441 46.6224V52.0244H219.321V14.7284H210.441V20.1304C209.183 16.5044 204.669 13.9144 198.527 13.9144ZM199.711 44.7724C196.529 44.7724 193.939 43.6624 191.793 41.5164C189.721 39.3704 188.685 36.6324 188.685 33.3764C188.685 30.1204 189.721 27.3824 191.793 25.2364C193.939 23.0904 196.529 21.9804 199.711 21.9804C202.893 21.9804 205.631 23.0904 207.777 25.2364C209.997 27.3824 211.107 30.1204 211.107 33.3764C211.107 36.6324 209.997 39.3704 207.777 41.5164C205.631 43.6624 202.893 44.7724 199.711 44.7724Z" fill="#013765"/>
<path d="M235.84 52.0244V30.5644C235.84 25.4584 239.466 21.9064 244.498 21.9064C249.456 21.9064 252.416 25.0884 252.416 30.1944V52.0244H261.296V28.9364C261.296 19.6864 256.042 13.9884 247.162 13.9884C241.834 13.9884 237.616 16.4304 235.84 20.0564V14.7284H227.034V52.0244H235.84Z" fill="#013765"/>
<path d="M273.096 47.4364C277.018 51.2104 281.828 53.1344 287.526 53.1344C293.224 53.1344 298.034 51.2104 301.956 47.4364C305.878 43.6624 307.876 38.9264 307.876 33.3764C307.876 27.8264 305.878 23.0904 301.956 19.3164C298.034 15.5424 293.224 13.6184 287.526 13.6184C281.828 13.6184 277.018 15.5424 273.096 19.3164C269.174 23.0904 267.176 27.8264 267.176 33.3764C267.176 38.9264 269.174 43.6624 273.096 47.4364ZM287.526 45.0684C284.196 45.0684 281.458 43.9584 279.238 41.7384C277.092 39.4444 275.982 36.7064 275.982 33.3764C275.982 30.0464 277.092 27.3084 279.238 25.0884C281.458 22.7944 284.196 21.6844 287.526 21.6844C290.782 21.6844 293.52 22.7944 295.74 25.0884C297.96 27.3084 299.07 30.0464 299.07 33.3764C299.07 36.7064 297.96 39.4444 295.74 41.7384C293.52 43.9584 290.782 45.0684 287.526 45.0684Z" fill="#013765"/>
<path d="M327.788 52.0244L335.484 28.4184L343.18 52.0244H350.062L362.568 14.7284H354.132L346.362 37.9644L338.814 14.7284H332.08L324.532 37.9644L316.762 14.7284H308.4L320.832 52.0244H327.788Z" fill="#013765"/>
<circle cx="8.01974" cy="8.04415" r="8.01974" fill="#2DCA73"/>
<circle cx="26.5002" cy="26.5244" r="8.01974" fill="#008DFF"/>
<circle cx="8.01974" cy="45.0047" r="8.01974" fill="#FF015B"/>
</svg>
