<?xml version="1.0" standalone="no"?>
<!DOCTYPE svg PUBLIC "-//W3C//DTD SVG 20010904//EN"
 "http://www.w3.org/TR/2001/REC-SVG-20010904/DTD/svg10.dtd">
<svg version="1.0" xmlns="http://www.w3.org/2000/svg"
 width="261.000000pt" height="261.000000pt" viewBox="0 0 261.000000 261.000000"
 preserveAspectRatio="xMidYMid meet">
<metadata>
Created by potrace 1.11, written by Peter Selinger 2001-2013
</metadata>
<g transform="translate(0.000000,261.000000) scale(0.100000,-0.100000)"
fill="#000000" stroke="none">
<path d="M815 2591 c-87 -30 -128 -54 -184 -110 -239 -241 -122 -648 209 -725
140 -33 287 7 391 106 62 59 88 98 114 177 80 235 -57 492 -295 554 -74 19
-173 18 -235 -2z"/>
<path d="M1721 1734 c-207 -43 -351 -221 -351 -432 1 -193 155 -378 349 -417
125 -25 278 17 371 101 227 205 180 572 -91 708 -61 31 -92 39 -189 50 -14 2
-54 -3 -89 -10z"/>
<path d="M849 869 c-99 -22 -196 -84 -258 -167 -129 -171 -111 -413 41 -564
165 -164 426 -169 598 -11 243 223 149 637 -165 729 -65 18 -162 24 -216 13z"/>
</g>
</svg>
